# xmcd
#
# Track frame offsets: 
#        150
#        24956
#        51606
#        69041
#        85213
#        104938
#        122945
#        136890
#        151695
#        168215
#        181482
#        192227
#        210142
#        224121
#        244933
#        260549
#        275408
#        295335
#        308780
#        328144
#        345811
#
# Disc length: 4773 seconds
#
# Revision: 0
# Processed by: cddbd v1.5.2PL0 Copyright (c) Steve Scherf et al.
# Submitted via: ExactAudioCopy v1.3
#
DISCID=3a12a315
DTITLE=Various Artist - Akella Presents - vol.162 - Americana  CD1
DYEAR=2018
DGENRE=Blues
TTITLE0=Mark Knopfler - Back On The Dance Floor
TTITLE1=Richie Arndt - On A Night Like This
TTITLE2=Big Boy Bloater and The Limits - Oops Sorry
TTITLE3=The Boonx - Days Of Summer
TTITLE4=Steve Hill - Tough Luck
TTITLE5=Eric Clapton - Home For The Holidays
TTITLE6=Reverend Rusty and The Case - Hey Bitch
TTITLE7=Too Mutz Blues Band - When I Get Drunk
TTITLE8=Robert Connely Farr and The Rebeltone Boys - Yes Ma'am
TTITLE9=The Bluesbones - Seesaw Blues
TTITLE10=The Voodoo Hoodoo Blues Club - Jacky's Song
TTITLE11=Erin Harpe and The Delta Swingers - Casey Jones
TTITLE12=The Cadillac Kings - No Good Women
TTITLE13=Beki Brindle Band - Twilight
TTITLE14=Celso Salim Band - Down the Aisle
TTITLE15=Damon Fowler - Just a Closer Walk with Thee
TTITLE16=Walter Trout Band - Time For Movin' On
TTITLE17=8 Ball Aitken - Skydive
TTITLE18=Ty Curtis - Cross That Line
TTITLE19=Kristy Kruger - Goodbye Brother
TTITLE20=Brian Fraser - Highly Strung
EXTD=
EXTT0=
EXTT1=
EXTT2=
EXTT3=
EXTT4=
EXTT5=
EXTT6=
EXTT7=
EXTT8=
EXTT9=
EXTT10=
EXTT11=
EXTT12=
EXTT13=
EXTT14=
EXTT15=
EXTT16=
EXTT17=
EXTT18=
EXTT19=
EXTT20=
PLAYORDER=
